<?xml version="1.0" encoding="UTF-8"?>
<svg id="IMAGOTIPO" xmlns="http://www.w3.org/2000/svg" viewBox="0 0 1997 430">
  <defs>
    <style>
      .cls-1 {
        stroke-width: 0px;
      }
    </style>
  </defs>
  <g>
    <path class="cls-1" d="M122.09,176.43c0-7.54,0-15.08,0-22.62,0-5.3,0-10.61,0-15.91,0-3.43,0-6.87,0-10.3,0-1.93,0-3.86,0-5.79,0-2.42-.04-4.84-1.06-7.09-1.41-3.1-4.79-4.27-7.67-2.78-1.26.65-2.33,1.65-3.37,2.65-4.85,4.67-9.46,9.61-14.18,14.41-1.54,1.57-3.28,3.03-3.7,5.4l-.33,59.98h-20.56c-6.77.49-7.11-5.72-7.11-5.72v-10.25c-.6-6.89-6.17-8.15-6.17-8.15-3.86-.92-5.23,1.09-5.23,1.09l-16.37,15.96c-3.43,2.86-2.93,8.15-2.93,8.15l.05,29.32c-.49,5.5,2.46,8.15,2.46,8.15l12.81,12.46c5.26,5.72,10.13,5.06,10.13,5.06,6.31-.37,5.78-5.9,5.78-5.9v-12.49c.33-5.7,4.82-6.6,6.54-6.73h20.43l-.27,48.04c12.68-12.68,17.14-17.18,30.76-30.8,0-13.12,0-22.59,0-35.7,0-10.15,0-20.29,0-30.44Z"/>
    <path class="cls-1" d="M191.87,229.24s4.79-5.39,0-10.2c0,0-2.55-2.59-5.7-2.44h-22.08c-2.11.01-4.13.85-5.62,2.34l-10.81,10.78h0s-42.51,42.51-42.51,42.51h0s-10.93,10.96-10.93,10.96c-1.49,1.49-2.32,3.51-2.32,5.62v22.08c-.16,3.15,2.43,5.7,2.43,5.7,4.81,4.79,10.2,0,10.2,0,0,0,5.62-5.6,22.5-22.48h0l42.51-42.51h0c16.76-16.76,22.33-22.35,22.33-22.35Z"/>
  </g>
  <g>
    <path class="cls-1" d="M405.74,257.03h-8.43v-47.05h-58.07v47.05h-8.43v-102.24h8.43v48.03h58.07v-48.03h8.43v102.24Z"/>
    <path class="cls-1" d="M505.83,211.6l31.67-56.81h9.76l-37.29,64.88v37.36h-8.36v-37.71l-37.01-64.53h9.76l31.46,56.81Z"/>
    <path class="cls-1" d="M614.77,214.54v42.48h-8.43v-102.24h35.25c10.72,0,19.02,2.74,24.9,8.22,5.87,5.48,8.81,12.69,8.81,21.63s-2.94,16.34-8.81,21.77c-5.88,5.43-14.18,8.15-24.9,8.15h-26.82ZM614.77,207.38h26.82c8.43,0,14.75-2.14,18.96-6.43,4.21-4.28,6.32-9.68,6.32-16.18s-2.11-11.99-6.32-16.32c-4.21-4.33-10.53-6.5-18.96-6.5h-26.82v45.43Z"/>
    <path class="cls-1" d="M792.45,207.52h-45.85v42.41h53.02v7.09h-61.44v-102.24h61.09v7.16h-52.66v38.41h45.85v7.16Z"/>
    <path class="cls-1" d="M868.81,210.82v46.2h-8.43v-102.17h34.06c10.95,0,19.36,2.4,25.21,7.2,5.85,4.8,8.78,11.81,8.78,21.03,0,5.43-1.56,10.28-4.67,14.57-3.11,4.28-7.52,7.41-13.23,9.37,6.32,1.59,10.87,4.44,13.66,8.53,2.79,4.1,4.18,9.24,4.18,15.42v9.62c0,3.18.37,6.04,1.12,8.57s1.99,4.59,3.72,6.18v1.69h-8.57c-1.73-1.69-2.95-4.05-3.65-7.09s-1.05-6.2-1.05-9.48v-9.34c0-6.27-2.03-11.22-6.07-14.85-4.05-3.62-9.7-5.44-16.96-5.44h-28.09ZM868.81,203.66h24.65c9.22,0,15.96-1.86,20.22-5.58,4.26-3.73,6.39-8.74,6.39-15.06,0-6.74-2.12-11.92-6.35-15.55-4.24-3.63-10.66-5.44-19.28-5.44h-25.63v41.64Z"/>
    <path class="cls-1" d="M1005.97,249.94h52.81v7.09h-61.23v-102.24h8.43v95.15Z"/>
    <path class="cls-1" d="M1194.89,214.26c0,13.2-3.61,23.87-10.85,32.02-7.23,8.15-16.93,12.22-29.1,12.22s-21.55-4.07-28.68-12.22c-7.14-8.15-10.71-18.82-10.71-32.02v-16.64c0-13.15,3.56-23.83,10.67-32.02,7.12-8.19,16.67-12.29,28.65-12.29s21.89,4.1,29.14,12.29c7.26,8.19,10.88,18.87,10.88,32.02v16.64ZM1186.54,197.48c0-11.05-2.8-19.94-8.39-26.68-5.59-6.74-13.35-10.11-23.28-10.11s-17.32,3.37-22.75,10.11c-5.43,6.74-8.15,15.64-8.15,26.68v16.78c0,11.14,2.72,20.08,8.18,26.82,5.45,6.74,13.05,10.11,22.78,10.11s17.73-3.36,23.28-10.08c5.54-6.71,8.32-15.67,8.32-26.86v-16.78Z"/>
    <path class="cls-1" d="M1334.8,214.26c0,13.2-3.61,23.87-10.85,32.02-7.23,8.15-16.93,12.22-29.1,12.22s-21.55-4.07-28.68-12.22c-7.14-8.15-10.71-18.82-10.71-32.02v-16.64c0-13.15,3.56-23.83,10.67-32.02,7.12-8.19,16.67-12.29,28.65-12.29s21.89,4.1,29.14,12.29c7.26,8.19,10.88,18.87,10.88,32.02v16.64ZM1326.44,197.48c0-11.05-2.8-19.94-8.39-26.68-5.59-6.74-13.35-10.11-23.28-10.11s-17.32,3.37-22.75,10.11c-5.43,6.74-8.15,15.64-8.15,26.68v16.78c0,11.14,2.72,20.08,8.18,26.82,5.45,6.74,13.05,10.11,22.78,10.11s17.73-3.36,23.28-10.08c5.54-6.71,8.32-15.67,8.32-26.86v-16.78Z"/>
    <path class="cls-1" d="M1408.14,214.54v42.48h-8.43v-102.24h35.25c10.72,0,19.02,2.74,24.9,8.22,5.87,5.48,8.81,12.69,8.81,21.63s-2.94,16.34-8.81,21.77c-5.88,5.43-14.18,8.15-24.9,8.15h-26.82ZM1408.14,207.38h26.82c8.43,0,14.75-2.14,18.96-6.43,4.21-4.28,6.32-9.68,6.32-16.18s-2.11-11.99-6.32-16.32c-4.21-4.33-10.53-6.5-18.96-6.5h-26.82v45.43Z"/>
    <path class="cls-1" d="M1685.42,154.79v67.34c0,11.38-3.74,20.28-11.2,26.72-7.47,6.44-17.1,9.66-28.89,9.66s-21.07-3.22-28.37-9.66c-7.3-6.43-10.95-15.34-10.95-26.72v-67.34h17.06v67.34c0,7.26,2.04,12.86,6.11,16.82,4.07,3.96,9.46,5.93,16.15,5.93s12.5-1.98,16.71-5.93c4.21-3.96,6.32-9.56,6.32-16.82v-67.34h17.06Z"/>
    <path class="cls-1" d="M1765.57,218.27v38.76h-17.06v-102.24h39.18c11.28,0,20.12,2.91,26.51,8.74,6.39,5.82,9.58,13.49,9.58,22.99s-3.2,17.29-9.58,23.07c-6.39,5.78-15.23,8.67-26.51,8.67h-22.12ZM1765.57,204.57h22.12c6.32,0,11.07-1.69,14.25-5.06,3.18-3.37,4.77-7.65,4.77-12.85s-1.59-9.53-4.77-12.99-7.93-5.2-14.25-5.2h-22.12v36.09Z"/>
    <path class="cls-1" d="M1916.08,229.29l1.83,7.44h.42l1.76-7.3,24.44-74.64h18.19l-36.51,102.24h-16.22l-36.44-102.24h18.19l24.37,74.5Z"/>
  </g>
</svg>