<?xml version="1.0" encoding="UTF-8"?>
<svg id="IMAGOTIPO" xmlns="http://www.w3.org/2000/svg" viewBox="0 0 900 900">
  <defs>
    <style>
      .cls-1 {
        stroke-width: 0px;
      }
    </style>
  </defs>
  <path class="cls-1" d="M406.96,449.98c.01-38.25.02-76.5.03-114.75,0-28.43,0-56.86,0-85.29,0-20,0-39.99,0-59.99,0-12.94,0-25.89-.01-38.84,0-7.28-.01-14.56-.02-21.84-.02-9.13-.17-18.26-4.01-26.73-5.3-11.69-18.07-16.11-28.92-10.49-4.75,2.46-8.77,6.23-12.7,10-18.28,17.59-35.67,36.22-53.48,54.34-5.81,5.93-12.35,11.43-13.95,20.37l-1.25,226.14h-77.52v-.04c-25.53,1.9-26.82-21.54-26.82-21.54v-38.64c-2.26-25.97-23.26-30.72-23.26-30.72-14.54-3.48-19.71,4.12-19.71,4.12l-61.72,60.18c-12.92,10.77-11.05,30.72-11.05,30.72l.21,110.55c-1.84,20.75,9.26,30.74,9.26,30.74l48.29,46.98c19.82,21.55,38.2,19.07,38.2,19.07,23.79-1.41,21.8-22.24,21.8-22.24v-47.1c1.25-21.49,18.19-24.87,24.64-25.38h77.02l-.98,215.04h0c-1.84,20.75,9.26,30.74,9.26,30.74l46.64,46.6c19.82,21.55,38.2,19.07,38.2,19.07,23.78-1.41,21.8-22.24,21.8-22.24v-26.14l.04.03v-121.47h.03v-113.4h-.03c0-32.47-.01-61.42,0-97.83Z"/>
  <path class="cls-1" d="M629.43,734.09l-.98-133.76-.64-197.43-1.25-226.14c-1.6-8.94-8.14-14.44-13.95-20.37-17.81-18.12-35.2-36.74-53.48-54.34-3.92-3.77-7.95-7.54-12.7-10-3.45-1.79-7.1-2.55-10.64-2.39-.37-.02-.74-.03-1.11-.03-.11,0-.22,0-.33,0,0,0-.02,0-.03,0-7.44-.13-12.25,5.67-12.25,5.67l-14.45,14.45v-.03s-32.02,32.74-32.02,32.74l-4.25,4.13c-12.5,10.46-11.87,22.12-11.87,22.12l.02,51.55c-.95,22.88,10.58,31.67,10.58,31.67,13.93,12.37,24.35-.24,24.35-.24l14.45-14.45v.03s4.56-4.49,4.56-4.49c0,5.72,0,11.45,0,17.17,0,28.43,0,56.86,0,85.29,0,38.25.01,76.5.03,114.75,0,36.4,0,65.36,0,97.83h-.03v203.58h.03v30.75l.04-.03v26.14s-1.98,20.83,21.8,22.24c0,0,18.38,2.47,38.2-19.07l46.64-46.6s11.11-9.98,9.26-30.74Z"/>
  <path class="cls-1" d="M827.82,517.92l.18-103.06v-72.17c-1.42-8.94-7.21-14.44-12.36-20.37-15.78-18.12-31.19-36.74-47.38-54.34-3.47-3.77-7.04-7.54-11.25-10-3.06-1.79-6.29-2.55-9.43-2.39-.33-.02-.65-.03-.98-.03-.1,0-.19,0-.29,0,0,0-.01,0-.02,0-6.59-.13-10.85,5.67-10.85,5.67l-12.81,14.45v-.03s-28.37,32.74-28.37,32.74l-3.77,4.13c-11.07,10.46-10.52,22.12-10.52,22.12l.02,51.55c-.84,22.88,9.37,31.67,9.37,31.67,12.35,12.37,21.58-.24,21.58-.24l12.81-14.45v.03s4.04-4.49,4.04-4.49c0,5.72,0,11.44,0,17.17,0,28.43,0,56.86,0,85.29,0,21.78,0,27.65,0,35.72h0c-.01-90.51,0-133.1,0,0h0v30.75l.03-.03v26.14s-1.75,20.83,19.32,22.24c0,0,16.29,2.47,33.85-19.07l38.59-48.27s9.84-9.98,8.21-30.74Z"/>
</svg>